<svg width="16" height="16" viewBox="0 0 16 16" fill="none" xmlns="http://www.w3.org/2000/svg">
<g clip-path="url(#clip0_271_141)">
<path d="M15.6867 1.3107C15.5601 1.19483 15.4049 1.11476 15.2371 1.0787C15.0693 1.04265 14.8949 1.05191 14.7319 1.10555L0.663476 5.74308C0.28007 5.86945 0.0200696 6.2117 0.00110086 6.61492C-0.0178366 7.01817 0.208882 7.38333 0.578695 7.54517L4.05791 9.06742L5.10763 13.936C5.15123 14.1383 5.25388 14.3184 5.47135 14.3738C5.69132 14.4299 5.84673 14.3096 6.01085 14.1868L8.59273 12.2535L11.6111 14.7235C11.7869 14.8674 12.0018 14.9425 12.2209 14.9425C12.3271 14.9424 12.4325 14.9249 12.533 14.8907C12.8507 14.783 13.0862 14.5237 13.1629 14.1971L15.9744 2.24395C16.0136 2.07686 16.0076 1.90235 15.957 1.73834C15.9065 1.57432 15.8132 1.42673 15.6867 1.3107ZM6.23576 9.9397C6.23404 9.94377 6.23235 9.94836 6.23076 9.95386L5.64876 11.9872L4.99926 8.97489L9.46541 6.49349L6.34288 9.75842C6.29391 9.80996 6.25729 9.87195 6.23576 9.9397ZM6.42048 12.7061L6.68482 11.7825L6.93766 10.8991L7.84363 11.6405L6.42048 12.7061ZM15.0596 2.02877L12.2482 13.982C12.2468 13.9879 12.2449 13.9961 12.2312 14.0007C12.2176 14.0054 12.2109 14.0001 12.2063 13.9962L8.90341 11.2935L8.90316 11.2932L7.37288 10.041L12.2892 4.90042C12.3669 4.81918 12.4129 4.71276 12.4188 4.6005C12.4248 4.48824 12.3903 4.37757 12.3216 4.28858C12.2529 4.19958 12.1545 4.13817 12.0444 4.11549C11.9343 4.09281 11.8197 4.11037 11.7214 4.16499L4.44173 8.20964L0.955382 6.68424C0.944757 6.67961 0.938913 6.67702 0.939757 6.65905C0.940601 6.64114 0.946663 6.63911 0.957663 6.63549L15.026 1.99799C15.0329 1.99577 15.0405 1.9932 15.0519 2.00352C15.0632 2.01389 15.0613 2.02177 15.0596 2.02877Z" fill="#9D9D9D"/>
</g>
<defs>
<clipPath id="clip0_271_141">
<rect width="16" height="16" fill="white"/>
</clipPath>
</defs>
</svg>
