<svg width="20" height="16" viewBox="0 0 20 16" fill="none" xmlns="http://www.w3.org/2000/svg">
<mask id="path-1-outside-1_271_150" maskUnits="userSpaceOnUse" x="-0.167969" y="1.6665" width="20" height="13" fill="black">
<rect fill="white" x="-0.167969" y="1.6665" width="20" height="13"/>
<path d="M18.2614 13.9998H15.7825C15.4874 13.9998 15.1923 13.8228 15.0153 13.5866L14.7792 13.203C14.6317 13.0259 13.2742 11.4616 12.4479 10.9599C12.1233 10.7828 12.0053 10.8123 12.0053 10.8123C12.0053 10.8123 11.9758 10.9009 11.9758 10.9304V12.4946C11.9758 13.321 11.297 13.9703 10.5003 13.9703H9.91007C9.76252 13.9703 6.4574 13.9113 3.83102 9.98595C1.76533 6.91651 1.0866 4.90956 0.850518 3.75852C0.791498 3.49289 0.880028 3.22727 1.02758 3.02067C1.20464 2.81407 1.44072 2.69602 1.70631 2.69602H3.80151C4.18514 2.69602 4.50975 2.93213 4.62779 3.31581C4.86387 3.99463 5.45407 5.73595 6.1623 6.85748C7.19515 8.56928 7.60829 8.71685 7.72633 8.71685C7.81486 8.56928 7.78535 7.979 7.78535 7.59532V6.68039C7.78535 5.94255 7.81486 4.93907 7.51976 4.46685L6.92956 3.61095C6.81152 3.43387 6.78201 3.19775 6.90005 2.99116C6.98858 2.78456 7.19515 2.6665 7.43123 2.6665H10.7954C11.297 2.6665 11.6807 3.0797 11.6807 3.55192V7.80192C11.6807 7.83143 11.7102 7.86095 11.7102 7.86095C11.7102 7.86095 11.8282 7.86095 12.1528 7.56581C12.8315 6.88699 13.6873 5.61789 14.5431 3.87657L14.8382 3.19775C14.9858 2.8731 15.3104 2.6665 15.6645 2.6665H17.8482C18.1433 2.6665 18.4089 2.81407 18.586 3.05018C18.763 3.2863 18.7926 3.61095 18.6745 3.87657L18.4384 4.49637V4.52588C18.4089 4.58491 17.6122 6.14914 16.7859 7.30018C16.1367 8.1856 15.8711 8.5988 15.9301 8.74636C15.9891 8.83491 16.3727 9.27762 16.7564 9.63178C17.4646 10.3696 18.3499 11.3141 18.6745 11.9339C18.8221 12.1995 18.9696 12.4356 19.0581 12.6422C19.2057 12.9078 19.2057 13.2325 19.0286 13.5276C18.8516 13.8523 18.586 13.9998 18.2614 13.9998ZM12.0643 10.2221C12.2709 10.2221 12.5069 10.3106 12.7725 10.4582C13.7464 11.0189 15.2219 12.7603 15.2809 12.8488L15.3104 12.8783L15.5465 13.262C15.6055 13.3505 15.694 13.4096 15.8121 13.4096H18.2614C18.4089 13.4096 18.4975 13.321 18.527 13.262C18.5565 13.2325 18.6155 13.1144 18.527 12.9669C18.4089 12.7603 18.2909 12.5241 18.1433 12.2585C17.8482 11.7273 16.9629 10.7828 16.3137 10.0745C15.6645 9.36616 15.4284 9.13004 15.3694 8.98248C15.1923 8.53977 15.4579 8.1856 16.3137 7.00505C17.081 5.94255 17.8187 4.49636 17.9073 4.31928L18.1433 3.69949C18.1728 3.61095 18.1728 3.49289 18.1138 3.43387C18.0548 3.34532 17.9663 3.31581 17.8777 3.31581H15.694C15.576 3.31581 15.4579 3.37484 15.4284 3.49289L15.1333 4.20123C14.4841 5.47032 13.5398 7.15262 12.625 8.06755C12.2414 8.45123 11.8872 8.56928 11.5921 8.48074C11.238 8.36268 11.1495 7.979 11.1495 7.94949V3.61095C11.1495 3.43387 11.0019 3.31581 10.8544 3.31581H7.43123L8.02143 4.17171C8.40506 4.7915 8.40506 5.88352 8.37555 6.73942V7.59532C8.40506 8.42171 8.40506 9.18907 7.87388 9.30713C7.28368 9.42518 6.66397 8.80539 5.66064 7.18213C4.98191 6.03109 4.39171 4.40782 4.09661 3.52241C4.0671 3.40435 3.94906 3.31581 3.80151 3.31581H1.73582C1.64729 3.31581 1.55876 3.34532 1.49974 3.43387C1.44072 3.49289 1.44072 3.58143 1.44072 3.66998C1.64729 4.76199 2.32602 6.6804 4.33269 9.69081C6.78201 13.3505 9.88056 13.4096 9.91007 13.4096H10.5003C11.0019 13.4096 11.3856 12.9964 11.3856 12.5241V10.9599C11.3856 10.9304 11.3856 10.5172 11.7102 10.3106C11.8282 10.2516 11.9462 10.2221 12.0643 10.2221Z"/>
</mask>
<path d="M18.2614 13.9998H15.7825C15.4874 13.9998 15.1923 13.8228 15.0153 13.5866L14.7792 13.203C14.6317 13.0259 13.2742 11.4616 12.4479 10.9599C12.1233 10.7828 12.0053 10.8123 12.0053 10.8123C12.0053 10.8123 11.9758 10.9009 11.9758 10.9304V12.4946C11.9758 13.321 11.297 13.9703 10.5003 13.9703H9.91007C9.76252 13.9703 6.4574 13.9113 3.83102 9.98595C1.76533 6.91651 1.0866 4.90956 0.850518 3.75852C0.791498 3.49289 0.880028 3.22727 1.02758 3.02067C1.20464 2.81407 1.44072 2.69602 1.70631 2.69602H3.80151C4.18514 2.69602 4.50975 2.93213 4.62779 3.31581C4.86387 3.99463 5.45407 5.73595 6.1623 6.85748C7.19515 8.56928 7.60829 8.71685 7.72633 8.71685C7.81486 8.56928 7.78535 7.979 7.78535 7.59532V6.68039C7.78535 5.94255 7.81486 4.93907 7.51976 4.46685L6.92956 3.61095C6.81152 3.43387 6.78201 3.19775 6.90005 2.99116C6.98858 2.78456 7.19515 2.6665 7.43123 2.6665H10.7954C11.297 2.6665 11.6807 3.0797 11.6807 3.55192V7.80192C11.6807 7.83143 11.7102 7.86095 11.7102 7.86095C11.7102 7.86095 11.8282 7.86095 12.1528 7.56581C12.8315 6.88699 13.6873 5.61789 14.5431 3.87657L14.8382 3.19775C14.9858 2.8731 15.3104 2.6665 15.6645 2.6665H17.8482C18.1433 2.6665 18.4089 2.81407 18.586 3.05018C18.763 3.2863 18.7926 3.61095 18.6745 3.87657L18.4384 4.49637V4.52588C18.4089 4.58491 17.6122 6.14914 16.7859 7.30018C16.1367 8.1856 15.8711 8.5988 15.9301 8.74636C15.9891 8.83491 16.3727 9.27762 16.7564 9.63178C17.4646 10.3696 18.3499 11.3141 18.6745 11.9339C18.8221 12.1995 18.9696 12.4356 19.0581 12.6422C19.2057 12.9078 19.2057 13.2325 19.0286 13.5276C18.8516 13.8523 18.586 13.9998 18.2614 13.9998ZM12.0643 10.2221C12.2709 10.2221 12.5069 10.3106 12.7725 10.4582C13.7464 11.0189 15.2219 12.7603 15.2809 12.8488L15.3104 12.8783L15.5465 13.262C15.6055 13.3505 15.694 13.4096 15.8121 13.4096H18.2614C18.4089 13.4096 18.4975 13.321 18.527 13.262C18.5565 13.2325 18.6155 13.1144 18.527 12.9669C18.4089 12.7603 18.2909 12.5241 18.1433 12.2585C17.8482 11.7273 16.9629 10.7828 16.3137 10.0745C15.6645 9.36616 15.4284 9.13004 15.3694 8.98248C15.1923 8.53977 15.4579 8.1856 16.3137 7.00505C17.081 5.94255 17.8187 4.49636 17.9073 4.31928L18.1433 3.69949C18.1728 3.61095 18.1728 3.49289 18.1138 3.43387C18.0548 3.34532 17.9663 3.31581 17.8777 3.31581H15.694C15.576 3.31581 15.4579 3.37484 15.4284 3.49289L15.1333 4.20123C14.4841 5.47032 13.5398 7.15262 12.625 8.06755C12.2414 8.45123 11.8872 8.56928 11.5921 8.48074C11.238 8.36268 11.1495 7.979 11.1495 7.94949V3.61095C11.1495 3.43387 11.0019 3.31581 10.8544 3.31581H7.43123L8.02143 4.17171C8.40506 4.7915 8.40506 5.88352 8.37555 6.73942V7.59532C8.40506 8.42171 8.40506 9.18907 7.87388 9.30713C7.28368 9.42518 6.66397 8.80539 5.66064 7.18213C4.98191 6.03109 4.39171 4.40782 4.09661 3.52241C4.0671 3.40435 3.94906 3.31581 3.80151 3.31581H1.73582C1.64729 3.31581 1.55876 3.34532 1.49974 3.43387C1.44072 3.49289 1.44072 3.58143 1.44072 3.66998C1.64729 4.76199 2.32602 6.6804 4.33269 9.69081C6.78201 13.3505 9.88056 13.4096 9.91007 13.4096H10.5003C11.0019 13.4096 11.3856 12.9964 11.3856 12.5241V10.9599C11.3856 10.9304 11.3856 10.5172 11.7102 10.3106C11.8282 10.2516 11.9462 10.2221 12.0643 10.2221Z" fill="#9D9D9D"/>
<path d="M15.0153 13.5866L14.7598 13.7439L14.767 13.7556L14.7753 13.7666L15.0153 13.5866ZM14.7792 13.203L15.0347 13.0457L15.0234 13.0274L15.0097 13.0109L14.7792 13.203ZM12.4479 10.9599L12.6038 10.7032L12.5916 10.6965L12.4479 10.9599ZM12.0053 10.8123L11.9325 10.5213L11.7727 10.5612L11.7207 10.7175L12.0053 10.8123ZM3.83102 9.98595L4.08036 9.81912L4.07991 9.81845L3.83102 9.98595ZM0.850518 3.75852L1.14444 3.69823L1.14338 3.69345L0.850518 3.75852ZM1.02758 3.02067L0.799788 2.82545L0.791156 2.83552L0.783447 2.84631L1.02758 3.02067ZM4.62779 3.31581L4.34086 3.40408L4.34444 3.41435L4.62779 3.31581ZM6.1623 6.85748L6.41922 6.70246L6.41596 6.69729L6.1623 6.85748ZM7.72633 8.71685V9.01685H7.8962L7.98359 8.87118L7.72633 8.71685ZM7.51976 4.46685L7.77443 4.3077L7.76674 4.29655L7.51976 4.46685ZM6.92956 3.61095L6.67991 3.77736L6.68259 3.78125L6.92956 3.61095ZM6.90005 2.99116L7.16053 3.13998L7.16904 3.12509L7.1758 3.10932L6.90005 2.99116ZM11.7102 7.86095L11.498 8.07307L11.5859 8.16095L11.7102 8.16095L11.7102 7.86095ZM12.1528 7.56581L12.3546 7.78778L12.3599 7.78297L12.365 7.77793L12.1528 7.56581ZM14.5431 3.87657L14.8127 4.00904L14.8182 3.99618L14.5431 3.87657ZM14.8382 3.19775L14.5651 3.07361L14.5631 3.07815L14.8382 3.19775ZM18.6745 3.87657L18.4004 3.75475L18.3971 3.76218L18.3942 3.76979L18.6745 3.87657ZM18.4384 4.49637L18.1581 4.38958L18.1384 4.44116V4.49637H18.4384ZM18.4384 4.52588L18.7068 4.66003L18.7384 4.59669V4.52588H18.4384ZM16.7859 7.30018L17.0278 7.47759L17.0296 7.47513L16.7859 7.30018ZM15.9301 8.74636L15.6515 8.85777L15.6631 8.88677L15.6805 8.91276L15.9301 8.74636ZM16.7564 9.63178L16.9728 9.42404L16.9665 9.4175L16.9599 9.41135L16.7564 9.63178ZM18.6745 11.9339L18.4087 12.0731L18.4123 12.0795L18.6745 11.9339ZM19.0581 12.6422L18.7824 12.7604L18.7884 12.7745L18.7959 12.7879L19.0581 12.6422ZM19.0286 13.5276L18.7712 13.3732L18.7653 13.384L19.0286 13.5276ZM12.7725 10.4582L12.9223 10.1982L12.9182 10.1959L12.7725 10.4582ZM15.2809 12.8488L15.0312 13.0152L15.0477 13.0399L15.0687 13.0609L15.2809 12.8488ZM15.3104 12.8783L15.5659 12.7211L15.5474 12.6911L15.5225 12.6662L15.3104 12.8783ZM15.5465 13.262L15.2908 13.4193L15.2968 13.4284L15.5465 13.262ZM18.527 13.262L18.3148 13.0499L18.2804 13.0843L18.2586 13.1278L18.527 13.262ZM18.527 12.9669L18.2664 13.1157L18.2697 13.1212L18.527 12.9669ZM15.3694 8.98248L15.6479 8.87107L15.3694 8.98248ZM16.3137 7.00505L16.5566 7.18112L16.5569 7.18068L16.3137 7.00505ZM17.9073 4.31928L18.1756 4.45343L18.1823 4.44005L18.1876 4.42607L17.9073 4.31928ZM18.1433 3.69949L18.4239 3.80637L18.4279 3.79435L18.1433 3.69949ZM18.1138 3.43387L17.8642 3.60026L17.8807 3.62498L17.9017 3.64598L18.1138 3.43387ZM15.4284 3.49289L15.7054 3.60826L15.714 3.58748L15.7195 3.56564L15.4284 3.49289ZM15.1333 4.20123L15.4004 4.33785L15.4057 4.32742L15.4103 4.3166L15.1333 4.20123ZM12.625 8.06755L12.8371 8.27966L12.625 8.06755ZM11.5921 8.48074L11.4972 8.76547L11.5059 8.76809L11.5921 8.48074ZM7.43123 3.31581V3.01581H6.85995L7.18426 3.48611L7.43123 3.31581ZM8.02143 4.17171L8.27652 4.01382L8.27261 4.00751L8.2684 4.00141L8.02143 4.17171ZM8.37555 6.73942L8.07555 6.72908V6.73942H8.37555ZM8.37555 7.59532H8.07536L8.07574 7.60603L8.37555 7.59532ZM7.87388 9.30713L7.93274 9.60137L7.93897 9.59998L7.87388 9.30713ZM5.66064 7.18213L5.40216 7.33454L5.40545 7.33986L5.66064 7.18213ZM4.09661 3.52241L3.80556 3.59516L3.80836 3.60633L3.812 3.61726L4.09661 3.52241ZM1.49974 3.43387L1.71188 3.64598L1.73289 3.62498L1.74936 3.60026L1.49974 3.43387ZM1.44072 3.66998H1.14072V3.6981L1.14594 3.72574L1.44072 3.66998ZM4.33269 9.69081L4.08306 9.8572L4.08337 9.85767L4.33269 9.69081ZM11.7102 10.3106L11.576 10.0423L11.5621 10.0492L11.5491 10.0575L11.7102 10.3106ZM18.2614 13.6998H15.7825V14.2998H18.2614V13.6998ZM15.7825 13.6998C15.6005 13.6998 15.3879 13.5834 15.2553 13.4067L14.7753 13.7666C14.9968 14.0621 15.3744 14.2998 15.7825 14.2998V13.6998ZM15.2708 13.4294L15.0347 13.0457L14.5237 13.3602L14.7598 13.7439L15.2708 13.4294ZM15.0097 13.0109C14.9314 12.9169 14.5501 12.476 14.0835 11.9944C13.624 11.5201 13.0538 10.9769 12.6036 10.7035L12.2922 11.2163C12.6683 11.4447 13.19 11.9344 13.6526 12.4119C14.1082 12.8822 14.4795 13.3119 14.5487 13.395L15.0097 13.0109ZM12.5916 10.6965C12.4107 10.5978 12.2723 10.5484 12.1667 10.5262C12.1135 10.515 12.0678 10.5105 12.0288 10.5105C12.0093 10.5105 11.9915 10.5116 11.9754 10.5135C11.9674 10.5145 11.9598 10.5156 11.9526 10.517C11.949 10.5176 11.9456 10.5183 11.9422 10.519C11.9405 10.5194 11.9389 10.5198 11.9373 10.5201C11.9365 10.5203 11.9357 10.5205 11.9349 10.5207C11.9345 10.5208 11.9341 10.5209 11.9337 10.521C11.9335 10.5211 11.9332 10.5211 11.9331 10.5212C11.9328 10.5212 11.9325 10.5213 12.0053 10.8123C12.078 11.1034 12.0777 11.1034 12.0775 11.1035C12.0774 11.1035 12.0771 11.1036 12.0769 11.1037C12.0765 11.1038 12.0761 11.1039 12.0757 11.1039C12.075 11.1041 12.0742 11.1043 12.0734 11.1045C12.0719 11.1048 12.0705 11.1052 12.069 11.1055C12.0661 11.1061 12.0634 11.1067 12.0607 11.1071C12.0555 11.1081 12.0507 11.1088 12.0465 11.1093C12.0382 11.1103 12.0322 11.1105 12.0288 11.1105C12.022 11.1105 12.0262 11.1097 12.0431 11.1133C12.0776 11.1206 12.1606 11.1449 12.3042 11.2233L12.5916 10.6965ZM12.0053 10.8123C11.7207 10.7175 11.7207 10.7175 11.7207 10.7175C11.7206 10.7175 11.7206 10.7175 11.7206 10.7175C11.7206 10.7176 11.7206 10.7176 11.7206 10.7176C11.7206 10.7177 11.7206 10.7177 11.7206 10.7178C11.7205 10.7179 11.7205 10.718 11.7204 10.7182C11.7203 10.7185 11.7202 10.7189 11.72 10.7194C11.7197 10.7204 11.7193 10.7217 11.7187 10.7233C11.7177 10.7265 11.7163 10.731 11.7146 10.7363C11.7113 10.7468 11.7067 10.7616 11.7021 10.7779C11.6975 10.7937 11.6921 10.8138 11.6875 10.8344C11.6845 10.8479 11.6758 10.8871 11.6758 10.9304H12.2758C12.2758 10.9589 12.2707 10.976 12.2732 10.9646C12.2742 10.9603 12.2761 10.9527 12.279 10.9427C12.2817 10.9332 12.2845 10.924 12.2867 10.917C12.2878 10.9135 12.2887 10.9108 12.2893 10.9091C12.2895 10.9082 12.2898 10.9076 12.2899 10.9073C12.2899 10.9071 12.2899 10.907 12.2899 10.907C12.2899 10.907 12.2899 10.907 12.2899 10.907C12.2899 10.907 12.2899 10.9071 12.2899 10.9071C12.2899 10.9071 12.2899 10.9071 12.2899 10.9071C12.2899 10.9071 12.2899 10.9072 12.2899 10.9072C12.2899 10.9072 12.2899 10.9072 12.0053 10.8123ZM11.6758 10.9304V12.4946H12.2758V10.9304H11.6758ZM11.6758 12.4946C11.6758 13.1515 11.1352 13.6703 10.5003 13.6703V14.2703C11.4588 14.2703 12.2758 13.4906 12.2758 12.4946H11.6758ZM10.5003 13.6703H9.91007V14.2703H10.5003V13.6703ZM9.91007 13.6703C9.82175 13.6703 6.63162 13.6322 4.08036 9.81912L3.58168 10.1528C6.28318 14.1904 9.70328 14.2703 9.91007 14.2703V13.6703ZM4.07991 9.81845C2.03107 6.77405 1.371 4.80306 1.1444 3.69824L0.556636 3.81879C0.802194 5.01605 1.49959 7.05896 3.58213 10.1534L4.07991 9.81845ZM1.14338 3.69345C1.10797 3.53409 1.15793 3.35433 1.27171 3.19503L0.783447 2.84631C0.602123 3.1002 0.475029 3.4517 0.55766 3.82359L1.14338 3.69345ZM1.25537 3.21589C1.38117 3.06911 1.53674 2.99602 1.70631 2.99602V2.39602C1.34469 2.39602 1.02811 2.55904 0.799788 2.82545L1.25537 3.21589ZM1.70631 2.99602H3.80151V2.39602H1.70631V2.99602ZM3.80151 2.99602C4.05181 2.99602 4.26126 3.14466 4.34105 3.40402L4.91453 3.22759C4.75824 2.71959 4.31847 2.39602 3.80151 2.39602V2.99602ZM4.34444 3.41435C4.57668 4.08214 5.17804 5.86071 5.90865 7.01766L6.41596 6.69729C5.73009 5.61119 5.15106 3.90712 4.91114 3.21727L4.34444 3.41435ZM5.90544 7.01246C6.42702 7.87692 6.80263 8.36452 7.07366 8.63963C7.33554 8.90545 7.54251 9.01685 7.72633 9.01685V8.41685C7.79211 8.41685 7.7335 8.45447 7.50108 8.21855C7.27782 7.99192 6.93043 7.54984 6.41917 6.70249L5.90544 7.01246ZM7.98359 8.87118C8.04209 8.77368 8.06116 8.65049 8.07084 8.56846C8.08226 8.47165 8.08709 8.36045 8.08899 8.2498C8.09268 8.03594 8.08535 7.77024 8.08535 7.59532H7.48535C7.48535 7.80409 7.49277 8.02537 7.48908 8.23946C7.4873 8.34279 7.48291 8.43081 7.47497 8.49817C7.46528 8.58031 7.45484 8.58624 7.46907 8.56252L7.98359 8.87118ZM8.08535 7.59532V6.68039H7.48535V7.59532H8.08535ZM8.08535 6.68039C8.08535 6.31938 8.09296 5.86836 8.06241 5.45206C8.03272 5.04743 7.96422 4.61199 7.77417 4.30787L7.26535 4.62584C7.3704 4.79393 7.4347 5.09634 7.46402 5.49597C7.49249 5.88392 7.48535 6.30356 7.48535 6.68039H8.08535ZM7.76674 4.29655L7.17654 3.44064L6.68259 3.78125L7.27279 4.63716L7.76674 4.29655ZM7.17919 3.44455C7.11494 3.34817 7.10666 3.23427 7.16053 3.13998L6.63957 2.84233C6.45736 3.16124 6.50811 3.51956 6.67994 3.77734L7.17919 3.44455ZM7.1758 3.10932C7.2093 3.03114 7.29415 2.9665 7.43123 2.9665V2.3665C7.09615 2.3665 6.76786 2.53798 6.6243 2.87299L7.1758 3.10932ZM7.43123 2.9665H10.7954V2.3665H7.43123V2.9665ZM10.7954 2.9665C11.1248 2.9665 11.3807 3.23881 11.3807 3.55192H11.9807C11.9807 2.92059 11.4692 2.3665 10.7954 2.3665V2.9665ZM11.3807 3.55192V7.80192H11.9807V3.55192H11.3807ZM11.3807 7.80192C11.3807 7.90684 11.4285 7.98288 11.4458 8.0089C11.4577 8.02678 11.4692 8.04109 11.4778 8.0511C11.4822 8.05626 11.4862 8.06068 11.4896 8.0643C11.4913 8.06612 11.4928 8.06776 11.4942 8.06922C11.4949 8.06995 11.4956 8.07064 11.4962 8.07128C11.4966 8.0716 11.4969 8.07191 11.4972 8.0722C11.4973 8.07235 11.4975 8.0725 11.4976 8.07264C11.4977 8.07271 11.4977 8.07279 11.4978 8.07286C11.4978 8.07289 11.4979 8.07294 11.4979 8.07296C11.498 8.07301 11.498 8.07307 11.7102 7.86095C11.9223 7.64883 11.9224 7.64888 11.9224 7.64893C11.9224 7.64895 11.9225 7.649 11.9225 7.64904C11.9226 7.64911 11.9227 7.64917 11.9227 7.64924C11.9229 7.64938 11.923 7.64951 11.9231 7.64965C11.9234 7.64992 11.9237 7.65019 11.9239 7.65045C11.9244 7.65098 11.9249 7.65149 11.9254 7.652C11.9264 7.65301 11.9273 7.65399 11.9282 7.65494C11.93 7.65683 11.9317 7.65872 11.9334 7.66065C11.9364 7.6642 11.9405 7.66929 11.945 7.67611C11.9493 7.68244 11.9568 7.6946 11.9638 7.71219C11.9706 7.72917 11.9807 7.76042 11.9807 7.80192H11.3807ZM11.7102 7.86095C11.7102 8.16095 11.7105 8.16095 11.7109 8.16095C11.711 8.16095 11.7114 8.16095 11.7116 8.16094C11.7121 8.16094 11.7126 8.16094 11.7131 8.16093C11.7141 8.16092 11.7151 8.16091 11.7161 8.16089C11.7181 8.16085 11.7201 8.16079 11.7221 8.16072C11.7261 8.16056 11.7302 8.16032 11.7344 8.16001C11.7428 8.15937 11.7513 8.1584 11.7602 8.15708C11.7778 8.15445 11.7964 8.15041 11.8161 8.14479C11.8553 8.1336 11.8994 8.11592 11.9495 8.08952C12.0488 8.03727 12.1802 7.94639 12.3546 7.78778L11.951 7.34384C11.8008 7.48037 11.7109 7.53706 11.67 7.55859C11.6501 7.56908 11.6444 7.56984 11.6513 7.56788C11.6548 7.56687 11.6617 7.56514 11.6716 7.56366C11.6766 7.56292 11.6823 7.56224 11.6887 7.56175C11.692 7.5615 11.6954 7.5613 11.6989 7.56116C11.7007 7.56109 11.7026 7.56104 11.7044 7.561C11.7054 7.56099 11.7063 7.56097 11.7073 7.56096C11.7077 7.56096 11.7082 7.56095 11.7087 7.56095C11.709 7.56095 11.7093 7.56095 11.7094 7.56095C11.7098 7.56095 11.7102 7.56095 11.7102 7.86095ZM12.365 7.77793C13.0774 7.06544 13.9504 5.76282 14.8124 4.00889L14.2739 3.74425C13.4243 5.47296 12.5857 6.70854 11.9407 7.35369L12.365 7.77793ZM14.8182 3.99618L15.1133 3.31736L14.5631 3.07815L14.268 3.75697L14.8182 3.99618ZM15.1113 3.32188C15.2098 3.1052 15.4271 2.9665 15.6645 2.9665V2.3665C15.1937 2.3665 14.7617 2.641 14.5651 3.07363L15.1113 3.32188ZM15.6645 2.9665H17.8482V2.3665H15.6645V2.9665ZM17.8482 2.9665C18.0387 2.9665 18.2192 3.06109 18.346 3.23017L18.826 2.8702C18.5987 2.56706 18.2479 2.3665 17.8482 2.3665V2.9665ZM18.346 3.23017C18.4549 3.37546 18.4762 3.58401 18.4004 3.75475L18.9487 3.9984C19.1089 3.63788 19.0712 3.19713 18.826 2.8702L18.346 3.23017ZM18.3942 3.76979L18.1581 4.38958L18.7188 4.60315L18.9549 3.98336L18.3942 3.76979ZM18.1384 4.49637V4.52588H18.7384V4.49637H18.1384ZM18.1701 4.39173C18.1415 4.4489 17.3536 5.99489 16.5422 7.12524L17.0296 7.47513C17.8707 6.3034 18.6763 4.72091 18.7068 4.66003L18.1701 4.39173ZM16.5439 7.12279C16.22 7.56461 15.9836 7.89947 15.8355 8.14503C15.762 8.26692 15.7024 8.37945 15.6658 8.47986C15.6343 8.56624 15.5932 8.7119 15.6515 8.85777L16.2086 8.63496C16.2375 8.70705 16.2075 8.74571 16.2295 8.68545C16.2463 8.63921 16.2826 8.56544 16.3493 8.4549C16.4815 8.23562 16.7026 7.92117 17.0278 7.47758L16.5439 7.12279ZM15.6805 8.91276C15.7247 8.9791 15.8512 9.12846 15.9997 9.2915C16.1548 9.46173 16.3529 9.66756 16.5529 9.85221L16.9599 9.41135C16.7762 9.24184 16.5907 9.04923 16.4433 8.88743C16.3698 8.80676 16.3068 8.73488 16.2593 8.67865C16.2355 8.65049 16.2162 8.627 16.2018 8.60877C16.1945 8.59966 16.189 8.59243 16.1849 8.58699C16.1805 8.58114 16.1791 8.5791 16.1797 8.57997L15.6805 8.91276ZM16.5399 9.83953C16.8937 10.2081 17.2874 10.6238 17.6322 11.0232C17.9813 11.4274 18.2637 11.7962 18.4088 12.0731L18.9403 11.7947C18.7607 11.4518 18.4382 11.0384 18.0864 10.631C17.7304 10.2188 17.3272 9.7933 16.9728 9.42404L16.5399 9.83953ZM18.4123 12.0795C18.5718 12.3668 18.7019 12.5725 18.7824 12.7604L19.3339 12.524C19.2373 12.2987 19.0723 12.0321 18.9368 11.7882L18.4123 12.0795ZM18.7959 12.7879C18.8897 12.9567 18.8951 13.167 18.7714 13.3733L19.2859 13.6819C19.5162 13.298 19.5217 12.859 19.3204 12.4965L18.7959 12.7879ZM18.7653 13.384C18.6397 13.6142 18.474 13.6998 18.2614 13.6998V14.2998C18.698 14.2998 19.0634 14.0904 19.292 13.6713L18.7653 13.384ZM12.0643 10.5221C12.1926 10.5221 12.3736 10.5797 12.6268 10.7204L12.9182 10.1959C12.6403 10.0415 12.3491 9.92206 12.0643 9.92206V10.5221ZM12.6228 10.7181C13.0689 10.975 13.6552 11.5216 14.1538 12.0388C14.399 12.2931 14.6162 12.533 14.7755 12.7146C14.8551 12.8054 14.9199 12.8811 14.9661 12.9363C15.0189 12.9993 15.0352 13.0212 15.0312 13.0152L15.5305 12.6824C15.5118 12.6543 15.4691 12.6024 15.4261 12.551C15.3765 12.4918 15.3087 12.4126 15.2265 12.3189C15.0621 12.1316 14.8385 11.8845 14.5857 11.6223C14.0884 11.1065 13.45 10.5021 12.9222 10.1982L12.6228 10.7181ZM15.0687 13.0609L15.0982 13.0904L15.5225 12.6662L15.493 12.6367L15.0687 13.0609ZM15.0549 13.0355L15.291 13.4192L15.802 13.1048L15.5659 12.7211L15.0549 13.0355ZM15.2968 13.4284C15.4019 13.5861 15.5776 13.7096 15.8121 13.7096V13.1096C15.8078 13.1096 15.8063 13.1091 15.8067 13.1092C15.8071 13.1093 15.8078 13.1096 15.8083 13.1099C15.8094 13.1105 15.8044 13.108 15.7961 13.0956L15.2968 13.4284ZM15.8121 13.7096H18.2614V13.1096H15.8121V13.7096ZM18.2614 13.7096C18.5383 13.7096 18.7224 13.5419 18.7953 13.3961L18.2586 13.1278C18.2615 13.122 18.2641 13.118 18.2657 13.1156C18.2674 13.1132 18.2687 13.1116 18.2695 13.1107C18.2711 13.1089 18.2719 13.1084 18.272 13.1083C18.2723 13.1081 18.2723 13.1082 18.2715 13.1085C18.2709 13.1087 18.2678 13.1096 18.2614 13.1096V13.7096ZM18.7391 13.4741C18.8589 13.3543 18.9486 13.0865 18.7842 12.8125L18.2697 13.1212C18.2749 13.1299 18.2749 13.1327 18.2743 13.1299C18.2737 13.1272 18.2734 13.1224 18.2742 13.1163C18.275 13.1107 18.2769 13.1039 18.2807 13.0958C18.2827 13.0917 18.2856 13.0861 18.2901 13.0794C18.2942 13.0735 18.302 13.0627 18.3148 13.0499L18.7391 13.4741ZM18.7874 12.818C18.6648 12.6034 18.5673 12.4039 18.4056 12.1128L17.8811 12.4042C18.0145 12.6444 18.153 12.9171 18.2665 13.1157L18.7874 12.818ZM18.4056 12.1128C18.2409 11.8163 17.9258 11.4257 17.5879 11.0363C17.2451 10.6412 16.8574 10.2237 16.5349 9.87179L16.0926 10.2772C16.4192 10.6336 16.7988 11.0425 17.1347 11.4295C17.4756 11.8223 17.7507 12.1695 17.8811 12.4042L18.4056 12.1128ZM16.5349 9.87179C16.2065 9.51352 15.9901 9.28279 15.8445 9.1189C15.7722 9.03755 15.7234 8.97939 15.6903 8.93544C15.6741 8.91388 15.6635 8.89808 15.6565 8.8867C15.6496 8.87535 15.6477 8.87057 15.6479 8.87107L15.0909 9.09388C15.1434 9.22527 15.2564 9.36044 15.396 9.51749C15.5454 9.68564 15.7717 9.92712 16.0926 10.2772L16.5349 9.87179ZM15.6479 8.87107C15.62 8.80108 15.613 8.7462 15.6199 8.68773C15.6274 8.6233 15.654 8.53687 15.7205 8.40863C15.8587 8.1424 16.121 7.78205 16.5566 7.18112L16.0708 6.82897C15.6507 7.4086 15.3523 7.81561 15.188 8.13227C15.1033 8.29548 15.0431 8.45439 15.024 8.61777C15.0041 8.78711 15.0303 8.94251 15.0909 9.09388L15.6479 8.87107ZM16.5569 7.18068C17.3395 6.09693 18.0864 4.63183 18.1756 4.45343L17.6389 4.18513C17.5511 4.3609 16.8224 5.78816 16.0705 6.82941L16.5569 7.18068ZM18.1876 4.42607L18.4237 3.80628L17.863 3.59271L17.6269 4.2125L18.1876 4.42607ZM18.4279 3.79435C18.4542 3.71564 18.4679 3.62394 18.4609 3.53261C18.4542 3.44575 18.4252 3.32097 18.326 3.22175L17.9017 3.64598C17.8808 3.62515 17.871 3.60495 17.8668 3.59383C17.8627 3.58296 17.8626 3.57721 17.8627 3.57861C17.8627 3.57965 17.8629 3.58358 17.8621 3.58966C17.8613 3.59567 17.8599 3.60101 17.8587 3.60463L18.4279 3.79435ZM18.3635 3.26747C18.2335 3.07251 18.0355 3.01581 17.8777 3.01581V3.61581C17.8896 3.61581 17.8896 3.61787 17.8827 3.61474C17.879 3.61307 17.8747 3.6105 17.8707 3.60707C17.8666 3.60361 17.8646 3.60082 17.8642 3.60026L18.3635 3.26747ZM17.8777 3.01581H15.694V3.61581H17.8777V3.01581ZM15.694 3.01581C15.4986 3.01581 15.213 3.11779 15.1374 3.42014L15.7195 3.56564C15.7166 3.57701 15.711 3.58863 15.7034 3.59855C15.6961 3.60803 15.6891 3.61324 15.6853 3.61557C15.6817 3.61778 15.6806 3.61768 15.683 3.61706C15.6853 3.61645 15.6892 3.61581 15.694 3.61581V3.01581ZM15.1515 3.37752L14.8564 4.08586L15.4103 4.3166L15.7054 3.60826L15.1515 3.37752ZM14.8662 4.0646C14.2149 5.33793 13.2895 6.9786 12.4128 7.85543L12.8371 8.27966C13.79 7.32663 14.7534 5.60272 15.4004 4.33785L14.8662 4.0646ZM12.4128 7.85543C12.0643 8.204 11.8201 8.23593 11.6783 8.1934L11.5059 8.76809C11.9544 8.90264 12.4184 8.69845 12.8371 8.27966L12.4128 7.85543ZM11.687 8.19614C11.6005 8.1673 11.5402 8.10491 11.4975 8.03129C11.4763 7.99493 11.4622 7.96007 11.4538 7.93443C11.4496 7.92171 11.4473 7.91277 11.4464 7.90877C11.4459 7.90666 11.4461 7.90724 11.4466 7.91025C11.4468 7.91173 11.4473 7.91512 11.4479 7.91995C11.4483 7.92328 11.4495 7.93446 11.4495 7.94949H10.8495C10.8495 7.99156 10.859 8.03169 10.8616 8.04313C10.8669 8.06622 10.8743 8.09302 10.8839 8.12227C10.9031 8.18056 10.9333 8.25453 10.9786 8.33254C11.0686 8.48765 11.2296 8.67612 11.4973 8.76534L11.687 8.19614ZM11.4495 7.94949V3.61095H10.8495V7.94949H11.4495ZM11.4495 3.61095C11.4495 3.24906 11.1478 3.01581 10.8544 3.01581V3.61581C10.8515 3.61581 10.8506 3.61528 10.8513 3.61556C10.8516 3.61566 10.8519 3.61581 10.8522 3.61601C10.8525 3.6162 10.8526 3.61631 10.8526 3.61628C10.8524 3.61616 10.8514 3.61511 10.8504 3.61293C10.8493 3.61035 10.8495 3.60909 10.8495 3.61095H11.4495ZM10.8544 3.01581H7.43123V3.61581H10.8544V3.01581ZM7.18426 3.48611L7.77446 4.34202L8.2684 4.00141L7.67821 3.14551L7.18426 3.48611ZM7.76634 4.3296C7.92147 4.58023 8.01191 4.95259 8.05481 5.39592C8.09708 5.83276 8.09041 6.30336 8.07573 6.72908L8.67537 6.74976C8.6902 6.31958 8.69828 5.81622 8.65202 5.33813C8.60639 4.86653 8.50502 4.38298 8.27652 4.01382L7.76634 4.3296ZM8.07555 6.73942V7.59532H8.67555V6.73942H8.07555ZM8.07574 7.60603C8.09074 8.02603 8.09539 8.38824 8.04093 8.65735C7.98663 8.9257 7.89919 8.99418 7.80879 9.01428L7.93897 9.59998C8.37975 9.50202 8.5579 9.12779 8.62901 8.77635C8.69998 8.42567 8.68987 7.99101 8.67536 7.58462L8.07574 7.60603ZM7.81504 9.01296C7.66263 9.04344 7.45635 8.99745 7.13094 8.68217C6.80533 8.36669 6.41578 7.83326 5.91582 7.0244L5.40545 7.33986C5.90883 8.15426 6.3308 8.74236 6.71343 9.11308C7.09625 9.48399 7.49494 9.68887 7.93272 9.6013L7.81504 9.01296ZM5.91905 7.02975C5.25769 5.90816 4.6757 4.3111 4.38122 3.42755L3.812 3.61726C4.10772 4.50455 4.70612 6.15402 5.40222 7.33451L5.91905 7.02975ZM4.38765 3.44966C4.31966 3.17765 4.06452 3.01581 3.80151 3.01581V3.61581C3.81513 3.61581 3.82008 3.61976 3.81894 3.61895C3.81803 3.6183 3.80966 3.61154 3.80556 3.59516L4.38765 3.44966ZM3.80151 3.01581H1.73582V3.61581H3.80151V3.01581ZM1.73582 3.01581C1.57811 3.01581 1.38007 3.07251 1.25011 3.26747L1.74936 3.60026C1.74899 3.60082 1.74696 3.60361 1.74287 3.60707C1.73882 3.6105 1.73454 3.61307 1.73086 3.61474C1.72397 3.61787 1.72396 3.61581 1.73582 3.61581V3.01581ZM1.28759 3.22175C1.20126 3.30809 1.16716 3.40894 1.15293 3.48719C1.13983 3.55928 1.14072 3.63174 1.14072 3.66998H1.74072C1.74072 3.64668 1.74076 3.63099 1.74137 3.61678C1.74195 3.60307 1.74288 3.5966 1.74326 3.59451C1.74359 3.5927 1.74272 3.5987 1.73801 3.60891C1.73289 3.62 1.72443 3.63344 1.71188 3.64598L1.28759 3.22175ZM1.14594 3.72574C1.36243 4.87017 2.06273 6.8263 4.08306 9.8572L4.58231 9.52442C2.5893 6.53449 1.93214 4.6538 1.73549 3.61422L1.14594 3.72574ZM4.08337 9.85767C6.60699 13.6284 9.8193 13.7096 9.91007 13.7096V13.1096C9.94181 13.1096 6.95704 13.0727 4.58201 9.52395L4.08337 9.85767ZM9.91007 13.7096H10.5003V13.1096H9.91007V13.7096ZM10.5003 13.7096C11.1741 13.7096 11.6856 13.1555 11.6856 12.5241H11.0856C11.0856 12.8373 10.8297 13.1096 10.5003 13.1096V13.7096ZM11.6856 12.5241V10.9599H11.0856V12.5241H11.6856ZM11.6856 10.9599C11.6856 10.9572 11.6851 10.8807 11.713 10.7893C11.7409 10.6981 11.7893 10.6158 11.8712 10.5637L11.5491 10.0575C11.3064 10.212 11.1925 10.4396 11.1392 10.614C11.086 10.7883 11.0856 10.9331 11.0856 10.9599H11.6856ZM11.8443 10.5789C11.9257 10.5382 11.9981 10.5221 12.0643 10.5221V9.92206C11.8944 9.92206 11.7307 9.96491 11.576 10.0423L11.8443 10.5789Z" fill="#9D9D9D" mask="url(#path-1-outside-1_271_150)"/>
</svg>
