<svg width="16" height="16" viewBox="0 0 16 16" fill="none" xmlns="http://www.w3.org/2000/svg">
<g clip-path="url(#clip0_271_145)">
<path d="M12.0056 9.63241L11.1577 8.78447C11.0439 8.67038 10.9063 8.58274 10.7548 8.52778C10.6033 8.47282 10.4416 8.45189 10.281 8.46647C10.1205 8.48068 9.96508 8.53005 9.82577 8.61108C9.68646 8.69211 9.5667 8.8028 9.47498 8.93532L9.17961 9.36097C8.77792 9.28941 8.00083 9.08688 7.45764 8.54366C6.91423 8.00022 6.71173 7.22279 6.64029 6.82169L7.06605 6.52629C7.19857 6.43456 7.30927 6.31478 7.39029 6.17546C7.47132 6.03613 7.52067 5.88068 7.53486 5.72013C7.54944 5.55964 7.52851 5.3979 7.47355 5.24641C7.41859 5.09491 7.33095 4.95738 7.21686 4.84357L6.36892 3.99563C6.02817 3.65491 5.51458 3.5736 5.09083 3.79316C4.34783 4.1781 3.85976 4.89966 3.71639 5.82491C3.48286 7.33238 4.17976 9.11082 5.53511 10.4662C6.71717 11.6482 8.22095 12.3294 9.58617 12.3294C9.78636 12.3294 9.98361 12.3148 10.1763 12.2849C11.1016 12.1416 11.8232 11.6535 12.2081 10.9105C12.4276 10.4867 12.3463 9.9731 12.0056 9.63241ZM11.3454 10.4635C11.0395 11.0539 10.4599 11.2577 10.0276 11.3247C8.83901 11.5087 7.34526 10.9021 6.22217 9.77907C5.09914 8.656 4.49245 7.16232 4.67658 5.97366C4.74351 5.54135 4.94733 4.96185 5.53776 4.65591C5.55374 4.64775 5.57145 4.64354 5.58939 4.64363C5.62239 4.64363 5.65626 4.65722 5.68176 4.68269L6.52973 5.53066C6.56495 5.56594 6.56945 5.60601 6.56698 5.63341C6.56451 5.66085 6.55301 5.69947 6.51201 5.72791L5.84223 6.19266C5.77336 6.24045 5.71803 6.30525 5.68162 6.38075C5.6452 6.45625 5.62894 6.53989 5.63442 6.62354C5.63864 6.68779 5.74914 8.20929 6.77051 9.23066C7.79189 10.2521 9.31339 10.3626 9.37764 10.3668C9.46128 10.3722 9.54491 10.3559 9.62041 10.3195C9.6959 10.2831 9.76071 10.2278 9.80854 10.1589L10.2733 9.48916C10.3017 9.44822 10.3404 9.43669 10.3678 9.43422C10.3952 9.43169 10.4353 9.43626 10.4706 9.47151L11.3185 10.3194C11.3579 10.3588 11.3689 10.418 11.3454 10.4635Z" fill="#9D9D9D"/>
<path d="M13.6567 2.34325C12.1457 0.832156 10.1367 0 7.99967 0C5.86267 0 3.85367 0.832156 2.34261 2.34322C1.05833 3.6275 0.243017 5.32722 0.0467671 7.12928C-0.138764 8.83287 0.231486 10.5669 1.09049 12.0368L0.256798 15.1481C0.23475 15.2305 0.234767 15.3172 0.256848 15.3996C0.278929 15.482 0.322296 15.5571 0.382593 15.6174C0.442891 15.6777 0.517994 15.721 0.60036 15.7431C0.682726 15.7652 0.769453 15.7652 0.85183 15.7432L3.96314 14.9095C5.18514 15.6237 6.5898 16 8.00764 16C8.29524 16 8.58339 15.9845 8.87067 15.9532C10.6727 15.757 12.3725 14.9417 13.6567 13.6573C15.1678 12.1463 16 10.1373 16 8.00031C16 5.86338 15.1678 3.85431 13.6567 2.34325ZM12.9696 12.9703C10.6468 15.2931 7.07902 15.7058 4.29349 13.9741C4.23702 13.9391 4.17396 13.9159 4.10821 13.9062C4.04246 13.8964 3.97541 13.9003 3.9112 13.9175L1.41317 14.5868L2.08255 12.0888C2.09974 12.0246 2.10358 11.9576 2.09383 11.8918C2.08408 11.8261 2.06095 11.763 2.02586 11.7066C0.29408 8.92091 0.706892 5.35313 3.02967 3.03031C5.77017 0.289875 10.2292 0.289875 12.9696 3.03031C15.7101 5.77075 15.7101 10.2298 12.9696 12.9703Z" fill="#9D9D9D"/>
</g>
<defs>
<clipPath id="clip0_271_145">
<rect width="16" height="16" fill="white"/>
</clipPath>
</defs>
</svg>
