<svg width="139" height="34" viewBox="0 0 139 34" fill="none" xmlns="http://www.w3.org/2000/svg">
<g clip-path="url(#clip0_271_94)">
<path d="M21.7266 0L25.6432 3.69804H33.7443V0H21.7266Z" fill="#FF9124"/>
<path d="M30.0805 8.1064L23.1305 15.6563V3.92505L18.9749 0H0V33.9414H0.0941146V34H14.8122L10.8956 30.302H3.65599V3.69804H19.1921V24.0702H23.1305V20.3282L29.0235 13.9793L33.7437 8.80939V5.52875H30.0805V8.1064Z" fill="#232323"/>
<path d="M26.1921 20.4822L30.0798 25.4837V30.3022H17.3453V9.0293H14.0079L8.71576 18.0437L5.49414 12.6834V18.776L7.78185 22.5546H9.51211L13.6604 15.5173L13.6749 17.5238V22.3642H13.6893V30.3461L17.5625 34.0002H33.6489V33.9416H33.743V24.2828L28.726 17.7069L26.1921 20.4822Z" fill="#232323"/>
<path d="M55.5268 8.91923H45.3407V3.80788H57.3439V0H40.7363V22.9645H55.5268L58.9004 19.552V12.3317L55.5268 8.91923ZM54.1585 19.1566H45.3407V12.5953H54.1585V19.1566Z" fill="#232323"/>
<path d="M66.2274 19.0248V13.1226H75.8271V9.31467H66.2274V3.93237H77.4488V0H61.623V22.9645H77.7746V19.0321H66.2274V19.0248Z" fill="#232323"/>
<path d="M79.3965 0V4.06418H85.6587V22.9571H90.2631V4.06418H96.5253V0H79.3965Z" fill="#232323"/>
<path d="M103.518 18.8931V5.86572H98.7832V19.4203L102.287 22.9646H114.095L117.599 19.4203V18.8931H103.518Z" fill="#232323"/>
<path d="M114.095 0H102.287L98.7832 3.54426V4.06418H112.864V17.0989H117.599V3.54426L114.095 0Z" fill="#FF9124"/>
<path d="M134.395 0V9.05105H125.505V0H120.9V22.9645H125.505V13.2544H134.395V22.9645H138.999V0H134.395Z" fill="#232323"/>
<path d="M40.7363 32.9602H41.7788V29.7161H43.4874V32.9602H44.5371V28.7935H40.7363V32.9602Z" fill="#232323"/>
<path d="M46.4258 28.7935V34.0073H47.4755V32.9675H49.4375L50.2772 32.118V29.6429L49.4375 28.7935H46.4258ZM49.2275 32.0668H47.4683V29.6868H49.2275V32.0668Z" fill="#232323"/>
<path d="M52.0449 29.577V32.1693L52.8268 32.9602H55.5778V32.0668H53.0874V31.1294H55.7226V28.7935H52.8196L52.0449 29.577ZM54.8104 29.6209V30.4704H53.0874V29.6209H54.8104Z" fill="#232323"/>
<path d="M57.4883 29.577V31.5688L58.2702 32.3597H60.2176V33.1066H57.7272V34H60.3624L61.2601 33.092V28.7861H58.3064L57.4883 29.577ZM58.538 29.6795H60.2248V31.4956H58.538V29.6795Z" fill="#232323"/>
<path d="M65.3863 30.7047L64.3293 28.7935H63.1348V32.9602H64.1121V29.9651L65.1401 31.8837H65.6397L66.6532 29.9651V32.9602H67.6378V28.7935H66.4433L65.3863 30.7047Z" fill="#232323"/>
<path d="M69.4551 29.577V32.1693L70.237 32.9602H72.988V32.0668H70.4976V31.1294H73.1328V28.7935H70.2297L69.4551 29.577ZM72.2206 29.6209V30.4704H70.4976V29.6209H72.2206Z" fill="#232323"/>
<path d="M74.7188 29.7161H76.1088V32.9602H77.1512V29.7161H78.5413V28.7935H74.7188V29.7161Z" fill="#232323"/>
<path d="M85.7886 28.7935H84.7461V32.9602H85.7886V28.7935Z" fill="#232323"/>
<path d="M81.228 29.7747V28.7935H80.1855V32.9602H83.2551L84.037 32.1693V30.5583L83.2551 29.7674H81.228V29.7747ZM82.9873 32.0961H81.228V30.6388H82.9873V32.0961Z" fill="#232323"/>
<path d="M91.711 31.7226V28.7935H90.6758V32.9602H91.7907L93.6947 30.053V32.9602H94.7227V28.7935H93.6151L91.711 31.7226Z" fill="#232323"/>
<path d="M99.3776 30.4118H97.6401V28.7935H96.5977V32.9602H97.6401V31.3272H99.3776V32.9602H100.427V28.7935H99.3776V30.4118Z" fill="#232323"/>
<path d="M102.055 29.7161H103.452V32.9602H104.494V29.7161H105.884V28.7935H102.055V29.7161Z" fill="#232323"/>
<path d="M107.471 29.577V32.1693L108.253 32.9602H111.004V32.0668H108.513V31.1294H111.148V28.7935H108.245L107.471 29.577ZM110.236 29.6209V30.4704H108.513V29.6209H110.236Z" fill="#232323"/>
<path d="M112.965 28.7935V34.0073H114.007V32.9675H115.977L116.816 32.118V29.6429L115.977 28.7935H112.965ZM115.774 32.0668H114.015V29.6868H115.774V32.0668Z" fill="#232323"/>
<path d="M119.683 29.7747V28.7935H118.641V32.9602H121.71L122.492 32.1693V30.5583L121.71 29.7674H119.683V29.7747ZM121.442 32.0961H119.683V30.6388H121.442V32.0961Z" fill="#232323"/>
<path d="M124.18 29.577V32.1693L124.962 32.9602H127.713V32.0668H125.222V31.1294H127.857V28.7935H124.954L124.18 29.577ZM126.945 29.6209V30.4704H126.931H125.229V29.6209H126.945Z" fill="#232323"/>
<path d="M129.682 28.7935V34.0073H130.731V32.9675H132.701L133.54 32.118V29.6429L132.701 28.7935H129.682ZM132.483 32.0668H130.724V29.6868H132.483V32.0668Z" fill="#232323"/>
<path d="M138.188 28.7935H135.422V29.6868H137.956V30.5802H135.277V32.1473L136.088 32.9675H139.006V29.6136L138.188 28.7935ZM136.32 32.0961V31.232H137.956V32.0961H136.32Z" fill="#232323"/>
</g>
<defs>
<clipPath id="clip0_271_94">
<rect width="139" height="34" fill="white"/>
</clipPath>
</defs>
</svg>
